<?xml version="1.0" encoding="UTF-8"?>
<svg xmlns="http://www.w3.org/2000/svg" xmlns:xlink="http://www.w3.org/1999/xlink" width="498.18pt" height="454.34pt" viewBox="0 0 498.18 454.34" version="1.1">
<defs>
<clipPath id="clip1">
  <path d="M 14 286 L 470 286 L 470 454.339844 L 14 454.339844 Z M 14 286 "/>
</clipPath>
<clipPath id="clip2">
  <path d="M 0 177 L 498.179688 177 L 498.179688 270 L 0 270 Z M 0 177 "/>
</clipPath>
</defs>
<g id="surface1">
<path style=" stroke:none;fill-rule:nonzero;fill:rgb(10.598755%,27.49939%,56.898499%);fill-opacity:1;" d="M 468.992188 -0.00390625 C 469.003906 11.945313 469.027344 23.898438 469.027344 35.851563 C 469.03125 77.226563 469.027344 118.605469 469.027344 159.984375 L 469.027344 162.78125 L 449.125 162.78125 L 449.125 20.132813 L 34.351563 20.132813 L 34.351563 170.324219 L 14.625 170.324219 C 14.121094 169.644531 14.339844 168.859375 14.339844 168.140625 C 14.328125 112.765625 14.332031 57.394531 14.335938 2.023438 C 14.335938 1.347656 14.414063 0.671875 14.453125 -0.00390625 "/>
<g clip-path="url(#clip1)" clip-rule="nonzero">
<path style=" stroke:none;fill-rule:nonzero;fill:rgb(10.598755%,27.49939%,56.898499%);fill-opacity:1;" d="M 14.453125 454.339844 C 14.410156 453.664063 14.335938 452.988281 14.335938 452.3125 C 14.332031 400.277344 14.332031 348.238281 14.332031 296.203125 L 14.332031 294.242188 L 34.230469 294.242188 L 34.230469 434.152344 L 448.925781 434.152344 L 448.925781 286.609375 L 468.800781 286.609375 C 469.238281 287.113281 469.019531 287.828125 469.019531 288.476563 C 469.027344 343.460938 469.027344 398.449219 469.027344 453.433594 C 469.027344 453.734375 469.003906 454.039063 468.992188 454.339844 "/>
</g>
<path style=" stroke:none;fill-rule:nonzero;fill:rgb(81.999207%,90.19928%,82.398987%);fill-opacity:1;" d="M 286.074219 40.519531 C 286.898438 39.695313 287.964844 40.121094 288.855469 40.066406 C 302.398438 39.234375 315.597656 40.679688 328.246094 46.644531 C 337.1875 50.859375 345.269531 56.433594 352.242188 63.761719 C 360.1875 72.109375 366.296875 81.890625 370.34375 93.171875 C 374.292969 104.167969 375.855469 115.566406 375.285156 127.292969 C 374.863281 135.925781 372.988281 144.285156 369.976563 152.273438 C 365.820313 163.304688 359.746094 172.980469 351.734375 181.121094 C 345.683594 187.273438 338.925781 192.378906 331.40625 196.214844 C 330.957031 196.445313 330.527344 196.671875 330.019531 196.527344 C 319.070313 197.714844 308.261719 196.875 297.730469 193.371094 C 285.070313 189.160156 273.828125 182.199219 264.515625 171.828125 C 246.136719 151.355469 239.011719 126.945313 243.859375 98.773438 C 247.09375 79.992188 256.042969 64.667969 269.410156 52.34375 C 274.519531 47.628906 280.179688 43.890625 286.074219 40.519531 "/>
<path style=" stroke:none;fill-rule:nonzero;fill:rgb(12.89978%,57.998657%,27.49939%);fill-opacity:1;" d="M 1.6875 245.109375 C 3.699219 242.734375 6.125 240.886719 8.4375 238.910156 C 19.695313 229.300781 32 221.65625 45.308594 215.980469 C 58.242188 210.464844 71.65625 207.171875 85.523438 206.203125 C 104.019531 204.910156 122.527344 204.53125 141.039063 205.664063 C 156.710938 206.625 172.226563 208.890625 187.570313 212.519531 C 198.941406 215.210938 210.289063 218.039063 221.679688 220.644531 C 246.523438 226.332031 271.695313 227.554688 297 227.15625 C 322.828125 226.746094 348.535156 224.597656 374.132813 220.953125 C 380.230469 220.089844 386.226563 218.328125 392.226563 216.785156 C 415.378906 210.828125 438.039063 203.117188 460.347656 194.140625 C 471.648438 189.585938 482.828125 184.695313 493.886719 179.484375 C 494.753906 179.074219 495.601563 178.609375 496.457031 178.171875 C 496.730469 179.21875 495.796875 179.382813 495.347656 179.800781 C 493.140625 181.863281 490.871094 183.851563 488.609375 185.847656 C 474.554688 198.234375 459.421875 208.835938 443.390625 217.890625 C 425.796875 227.824219 407.429688 235.570313 388.21875 240.96875 C 375.097656 244.65625 361.796875 247.152344 348.339844 248.601563 C 331.28125 250.4375 314.175781 251.007813 297.03125 250.175781 C 281.992188 249.445313 267.019531 247.960938 252.105469 245.816406 C 236.582031 243.582031 221.144531 240.691406 205.738281 237.648438 C 186.445313 233.839844 167.1875 229.828125 147.792969 226.644531 C 132.976563 224.210938 118.121094 222.1875 103.113281 222.113281 C 86.988281 222.035156 70.988281 223.714844 55.175781 227.132813 C 38.695313 230.699219 22.605469 235.742188 7.09375 242.894531 C 5.332031 243.703125 3.683594 244.9375 1.6875 245.109375 "/>
<g clip-path="url(#clip2)" clip-rule="nonzero">
<path style=" stroke:none;fill-rule:nonzero;fill:rgb(81.999207%,90.19928%,82.398987%);fill-opacity:1;" d="M 1.6875 245.109375 C 3.683594 244.9375 5.332031 243.703125 7.09375 242.894531 C 22.605469 235.742188 38.695313 230.699219 55.175781 227.132813 C 70.988281 223.714844 86.988281 222.035156 103.113281 222.113281 C 118.121094 222.1875 132.976563 224.210938 147.792969 226.644531 C 167.1875 229.828125 186.445313 233.839844 205.738281 237.648438 C 221.144531 240.691406 236.582031 243.582031 252.105469 245.816406 C 267.019531 247.960938 281.992188 249.445313 297.03125 250.175781 C 314.175781 251.007813 331.28125 250.4375 348.339844 248.601563 C 361.796875 247.152344 375.097656 244.65625 388.21875 240.96875 C 407.429688 235.570313 425.796875 227.824219 443.390625 217.890625 C 459.421875 208.835938 474.554688 198.234375 488.609375 185.847656 C 490.871094 183.851563 493.140625 181.863281 495.347656 179.800781 C 495.796875 179.382813 496.730469 179.21875 496.457031 178.171875 C 496.8125 177.632813 497.273438 177.402344 498.183594 177.621094 C 497.089844 180.179688 495.472656 182.210938 494.046875 184.335938 C 488.726563 192.269531 482.753906 199.613281 476.265625 206.410156 C 468.082031 214.988281 459.371094 222.890625 449.972656 229.886719 C 440.566406 236.886719 430.714844 243.011719 420.382813 248.171875 C 405.238281 255.734375 389.46875 261.289063 373.066406 264.601563 C 364.789063 266.277344 356.445313 267.386719 348.066406 268.34375 C 333.410156 270.019531 318.726563 269.914063 304.0625 269.453125 C 293.457031 269.121094 282.863281 267.972656 272.296875 266.570313 C 257.769531 264.640625 243.351563 262.015625 228.976563 259.113281 C 217.714844 256.839844 206.519531 254.179688 195.28125 251.753906 C 182.152344 248.917969 169.042969 245.96875 155.867188 243.414063 C 145.480469 241.398438 135.023438 239.8125 124.511719 238.6875 C 115.632813 237.738281 106.746094 237.195313 97.832031 236.796875 C 93.121094 236.585938 88.417969 236.46875 83.714844 236.527344 C 73.207031 236.660156 62.71875 237.234375 52.242188 238.226563 C 36.613281 239.707031 21.109375 241.984375 5.8125 245.835938 C 3.953125 246.304688 2.050781 246.65625 0 247.34375 C 0.230469 246.046875 0.835938 245.464844 1.6875 245.109375 "/>
</g>
<path style=" stroke:none;fill-rule:nonzero;fill:rgb(12.89978%,57.998657%,27.49939%);fill-opacity:1;" d="M 286.074219 40.519531 C 280.179688 43.890625 274.519531 47.628906 269.410156 52.34375 C 256.042969 64.667969 247.09375 79.992188 243.859375 98.773438 C 239.011719 126.945313 246.136719 151.355469 264.515625 171.828125 C 273.828125 182.199219 285.070313 189.160156 297.730469 193.371094 C 308.261719 196.875 319.070313 197.714844 330.019531 196.527344 C 325.96875 199.246094 321.421875 200.601563 316.894531 201.828125 C 307.972656 204.253906 298.910156 205.246094 289.6875 204.300781 C 275.324219 202.832031 262.152344 197.835938 250.308594 188.8125 C 241.269531 181.925781 233.753906 173.414063 228.195313 163.027344 C 218.652344 145.199219 215.546875 126.054688 219.488281 105.808594 C 223.898438 83.136719 235.59375 65.816406 253.304688 53.320313 C 263.265625 46.289063 274.253906 42.050781 286.074219 40.519531 "/>
</g>
</svg>
